<svg width="52" height="48" viewBox="0 0 52 48" fill="none" xmlns="http://www.w3.org/2000/svg">
<g clip-path="url(#clip0_126_822)">
<path d="M17.6836 33.4169V42.7734L25.9214 47.4517L34.1592 42.7734V33.4169L25.9214 28.7325L17.6836 33.4169Z" fill="#FEB51E" stroke="white" stroke-miterlimit="10"/>
<path d="M34.334 5.03762V14.3941L42.5718 19.0724L50.8033 14.3941V5.03762L42.5718 0.359375L34.334 5.03762Z" fill="#FEB51E" stroke="white" stroke-miterlimit="10"/>
<path d="M17.6836 5.03762V14.3941L25.9214 19.0724L34.1592 14.3941V5.03762L25.9214 0.359375L17.6836 5.03762Z" fill="#FEB51E" stroke="white" stroke-miterlimit="10"/>
<path d="M0.980469 5.03762V14.3941L9.21826 19.0724L17.4561 14.3941V5.03762L9.21826 0.359375L0.980469 5.03762Z" fill="#FEB51E" stroke="white" stroke-miterlimit="10"/>
<path d="M26.0215 19.2149V28.5776L34.2593 33.2558L42.4971 28.5776V19.2149L34.2593 14.5366L26.0215 19.2149Z" fill="#FEB51E" stroke="white" stroke-miterlimit="10"/>
<path d="M9.39453 19.2149V28.5776L17.6323 33.2558L25.8701 28.5776V19.2149L17.6323 14.5366L9.39453 19.2149Z" fill="#FEB51E" stroke="white" stroke-miterlimit="10"/>
<path d="M12.2034 6.72922L10.1502 12.3183H8.27971L6.22656 6.72922H8.26712L9.2622 10.0319L10.251 6.72922H12.2034Z" fill="#41014A"/>
<path d="M20.0573 21.3155V26.6257H18.6276V24.5562H16.7382V26.6257H15.3086V21.3155H16.7382V23.3045H18.6276V21.3155H20.0573Z" fill="#41014A"/>
<path d="M36.6962 24.4446V25.6529L35.7829 26.5514H31.9727V21.2411H35.6255L36.5387 22.1396V23.3293L36.0538 23.8064L36.6962 24.4446ZM33.4023 23.3417H34.876L35.1091 23.1124V22.6291L34.9327 22.4556H33.4023V23.3355V23.3417ZM35.2665 25.1634V24.7358L34.9705 24.4446H33.396V25.3369H35.0839L35.2602 25.1634H35.2665Z" fill="#41014A"/>
<path d="M28.5396 36.4903V39.6938L27.4689 40.7472H24.723L23.6523 39.6938V36.4903L24.723 35.437H27.4689L28.5396 36.4903ZM27.11 39.1672V37.0108L26.7762 36.6824H25.4095L25.0757 37.0108V39.1672L25.4095 39.4956H26.7762L27.11 39.1672Z" fill="#41014A"/>
<path d="M43.3911 9.19537V11.3269L43.8194 11.7483H44.8838V13.2664H42.6732L41.4577 12.0705V9.18918H40.2988V7.67107H41.571L41.8418 5.67584H43.3849V7.67107H44.8838V9.18918H43.3849L43.3911 9.19537Z" fill="#41014A"/>
</g>
<defs>
<clipPath id="clip0_126_822">
<rect width="50.4533" height="47.8049" fill="white" transform="translate(0.666016)"/>
</clipPath>
</defs>
</svg>
